<?xml version="1.0" encoding="utf-8"?>
<!-- Generator: Adobe Illustrator 24.0.0, SVG Export Plug-In . SVG Version: 6.00 Build 0)  -->
<svg version="1.1" id="Layer_1" xmlns="http://www.w3.org/2000/svg" xmlns:xlink="http://www.w3.org/1999/xlink" x="0px" y="0px"
	 viewBox="0 0 297.6 205.5" style="enable-background:new 0 0 297.6 205.5;" xml:space="preserve">
<style type="text/css">
	.st0{fill:#1276BC;}
</style>
<g>
	<g>
		<g>
			<g>
				<path class="st0" d="M128.1,85.6l19.4-6.6c0.9-0.3,1.9-0.3,2.8,0l20.4,6.6c0.6,0.2,0.9,0.9,0.5,1.4l0,0
					c-0.2,0.4-0.7,0.6-1.1,0.4l-18.5-5.8c-1.8-0.6-3.8-0.6-5.6,0l-17.3,5.9c-0.4,0.1-0.9,0-1.1-0.4l0,0
					C127.3,86.5,127.4,85.8,128.1,85.6z"/>
			</g>
		</g>
		<g>
			<g>
				<path class="st0" d="M167.5,109l-0.2-20l-18-5.5c-0.6-0.2-1.2-0.2-1.8,0l-17.4,5.9V109h6.4l0.2-15.8h25.2V109H167.5z"/>
			</g>
		</g>
		<g>
			<g>
				<path class="st0" d="M159.4,96.9h-20.1c-0.4,0-0.7-0.3-0.7-0.7s0.3-0.7,0.7-0.7h20.1c0.4,0,0.7,0.3,0.7,0.7
					S159.8,96.9,159.4,96.9z"/>
			</g>
		</g>
		<g>
			<g>
				<path class="st0" d="M159.4,101h-20.1c-0.4,0-0.7-0.3-0.7-0.7s0.3-0.7,0.7-0.7h20.1c0.4,0,0.7,0.3,0.7,0.7S159.8,101,159.4,101z
					"/>
			</g>
		</g>
		<g>
			<g>
				<path class="st0" d="M159.4,104.7h-20.1c-0.4,0-0.7-0.3-0.7-0.7s0.3-0.7,0.7-0.7h20.1c0.4,0,0.7,0.3,0.7,0.7
					S159.8,104.7,159.4,104.7z"/>
			</g>
		</g>
	</g>
	<g>
		<g>
			<g>
				<path class="st0" d="M118.6,97.8c-0.1,0.1-0.1,0.3,0.1,0.3l6.3,2.4l-2.1,5.4l-5.9-2.6c-0.2-0.1-0.5,0.1-0.5,0.3v0.1
					c0,0.9,0.2,1.4,0.6,2.3c1.6,3.8,6,5.5,9.8,3.9c0.7-0.3,1.3-0.8,1.8-1.3l0.7,0.3l31.7,12.6v0.1c0.1,0.6,0.3,1.2,0.6,1.8
					c1.4,2.8,4.8,4.1,7.7,3c3.3-1.3,4.8-5.1,3.3-8.3c-1.4-2.9-4.8-4.3-7.7-3.1c-0.6,0.2-1.2,0.5-1.6,0.9l-0.3-0.1l-31.7-12.6
					l-0.2-0.1c0-1,0-2-0.4-3c-1.6-3.8-6-5.5-9.8-3.9C120.1,96.5,119.3,97.1,118.6,97.8z M169.4,119.8c0.5,1.2,0,2.5-1.2,3
					s-2.5,0-3-1.2s0-2.5,1.2-3S168.9,118.6,169.4,119.8z"/>
			</g>
		</g>
		<g>
			<g>
				<path class="st0" d="M176.5,96c-3.8-1.6-8.2,0.1-9.8,3.9c-0.4,1-0.4,2-0.4,3l-0.2,0.1l-31.7,12.6l-0.3,0.1
					c-0.5-0.4-1-0.7-1.6-0.9c-3-1.1-6.4,0.2-7.7,3.1c-1.5,3.2,0,7,3.3,8.3c2.9,1.2,6.3-0.1,7.7-3c0.3-0.6,0.5-1.2,0.6-1.8v-0.1
					l31.7-12.6l0.7-0.3c0.5,0.4,1.2,1,1.8,1.3c3.8,1.6,8.2-0.1,9.8-3.9c0.4-0.9,0.6-1.4,0.6-2.3v-0.1c0-0.2-0.3-0.4-0.5-0.3
					l-5.9,2.6l-2.1-5.4l6.3-2.4c0.1,0,0.2-0.2,0.1-0.3C178.3,96.9,177.4,96.3,176.5,96z M131,118.4c1.2,0.5,1.7,1.8,1.2,3
					s-1.8,1.7-3,1.2s-1.7-1.8-1.2-3C128.6,118.4,129.9,117.9,131,118.4z"/>
			</g>
		</g>
	</g>
</g>
</svg>
