<svg xmlns="http://www.w3.org/2000/svg" viewBox="0 0 559.05 209.07"><title>mpv</title><path d="M583.12,150c-16.58.05-33.16.16-49.73,0-1.18,0-2.95-1.72-3.41-3-3.33-9.23-9.16-16.53-18.23-20.24a110,110,0,0,0-23.5-6.66c-24.19-4-45.78,6.5-57.9,27.27a6.59,6.59,0,0,1-4.82,2.67q-113.59.19-227.19.17c-2.88,0-4.22-1.06-5.33-3.51a42.26,42.26,0,0,0-14.84-17.38c-13.74-9.55-29.25-11.47-45.36-9.5-14.23,1.73-26.83,7.11-35.67,18.92-9.07,12.13-11.44,26-10.37,40.7.17,2.28.3,4.56.43,6.55-11.43,0-22.29.1-33.15-.09a9.43,9.43,0,0,1-5.77-2.06c-7.92-7.36-15.59-15-23.34-22.52q.25-10.33.5-20.67a16.17,16.17,0,0,1,.17-2.2c1.33-8.25-.13-6.95,7.86-7.08,2.54,0,5.08,0,7.62,0,13.3,0,14.9-1.64,14.54-14.86-.18-6.56-3-9.36-9.66-9.44-4.09,0-8.17,0-12.83,0,7-15.14,16.2-26.51,32.76-29.95,4.67-1,9.31-2.29,14-2.73,10.66-1,20.07-4.77,29-10.46,17.46-11.06,35.44-21.35,52.75-32.64a125.38,125.38,0,0,1,70.39-21c53.77,0,107.54-1.26,161.3-1.63,43.62-.3,87.24.21,130.85-.2,16.38-.15,27.48,6.76,34,21a181.23,181.23,0,0,1,8.17,22c2.1,6.74,2.31,14.25,5.36,20.46,3.72,7.58,4.93,15.31,5.92,23.37.72,5.85,0,12.17,5.52,17.7h-5.71c-6,0-12-.06-17.92.09-3.42.09-6.12,2-5.87,5.37.16,2.19,2.13,4.53,3.88,6.18.93.88,3.13.54,4.76.55,7,0,14,0,21.58,0v24.47A3.17,3.17,0,0,1,583.12,150ZM341.36,82.11V27.55c-1.46-.09-2.91-.24-4.35-.24-22.83,0-45.66.13-68.49-.09-4.1,0-6,1.54-6.17,5.08-.71,16.45-1.22,32.91-1.81,49.81ZM137,82.31c26.25,0,52.5-.08,78.75,0,3,0,4.68-.81,5.51-3.69,2.69-9.31,6.3-18.46,8-27.94,1.31-7.39.26-15.18.26-23-18.69-1.44-37.2-.43-54.51,9.26C155,48.13,138.2,63,123,79.76a21.84,21.84,0,0,0-1.62,2.55ZM367.28,27.47V81.94c1.23.1,2.38.29,3.53.27q30.19-.36,60.4-.77c2.18,0,4.13.12,4.12-3.06-.09-16.79,0-33.58,0-50.91ZM460.4,81.18c3.6-.18,7-.19,10.32-.55,13.92-1.49,28-2,41.7-4.89,18.87-3.92,28.34-30.18,17.31-45.76-.9-1.26-2.74-2.67-4.15-2.67-21.35-.11-42.7,0-64.05.07-.26,0-.53.24-1.13.52Z" transform="translate(-24.94 -8.48)"/><path d="M423,162.54H198.49v23.89c1.51.07,3,.2,4.4.2q107.06.13,214.11.25c5.94,0,5.95,0,5.95-6S423,168.88,423,162.54Z" transform="translate(-24.94 -8.48)"/><path d="M479.4,217.53c-23.66.58-43.74-18.72-44.22-42.5-.48-23.48,18.95-43.17,43.05-43.64a43.49,43.49,0,0,1,44.18,42.48C523,197.34,503.64,216.94,479.4,217.53Zm-.34-18.22a24.45,24.45,0,1,0-24.63-24.56A24.58,24.58,0,0,0,479.06,199.31Z" transform="translate(-24.94 -8.48)"/><path d="M99.17,175c-.46-23.48,19-43.12,43.11-43.56A43.54,43.54,0,0,1,186.41,174c.41,23.5-19,43.1-43.13,43.59A43.56,43.56,0,0,1,99.17,175Zm44.29,24.36a24.45,24.45,0,1,0-25-24.16A24.53,24.53,0,0,0,143.46,199.31Z" transform="translate(-24.94 -8.48)"/><path d="M534,162.54c.47,8,.92,15.54,1.43,24.19,7.65,0,15.2-.1,22.73,0,12.77.2,12.77.25,17.75-11.67,1.69-4,3.41-8.06,5.3-12.54Z" transform="translate(-24.94 -8.48)"/></svg>