<?xml version="1.0" encoding="UTF-8" standalone="no"?>
<svg
   width="38.456001"
   height="37.507999"
   viewBox="0 0 38.456001 37.507999"
   version="1.1"
   id="svg4"
   sodipodi:docname="github.svg"
   inkscape:version="1.1 (ce6663b3b7, 2021-05-25)"
   xmlns:inkscape="http://www.inkscape.org/namespaces/inkscape"
   xmlns:sodipodi="http://sodipodi.sourceforge.net/DTD/sodipodi-0.dtd"
   xmlns="http://www.w3.org/2000/svg"
   xmlns:svg="http://www.w3.org/2000/svg">
  <defs
     id="defs8" />
  <sodipodi:namedview
     id="namedview6"
     pagecolor="#ffffff"
     bordercolor="#666666"
     borderopacity="1.0"
     inkscape:pageshadow="2"
     inkscape:pageopacity="0.0"
     inkscape:pagecheckerboard="0"
     showgrid="false"
     inkscape:zoom="32.583333"
     inkscape:cx="11.984655"
     inkscape:cy="11.984655"
     inkscape:window-width="1920"
     inkscape:window-height="1016"
     inkscape:window-x="0"
     inkscape:window-y="0"
     inkscape:window-maximized="1"
     inkscape:current-layer="svg4" />
  <path
     d="M 19.228107,0 C 8.6109873,0 0,8.6093849 0,19.228107 c 0,8.495619 5.5088527,15.702954 13.150423,18.245871 0.959803,0.17786 1.270657,-0.418211 1.270657,-0.924551 V 32.969794 C 9.0724618,34.133095 7.958834,30.700878 7.958834,30.700878 7.0839551,28.478429 5.8229117,27.887165 5.8229117,27.887165 4.077961,26.69342 5.9559062,26.719057 5.9559062,26.719057 c 1.9308224,0.134597 2.9467074,1.982097 2.9467074,1.982097 1.7145064,2.938696 4.4977744,2.089455 5.5953794,1.597536 0.17145,-1.241816 0.669779,-2.091057 1.220985,-2.570157 -4.270243,-0.488715 -8.7600056,-2.137525 -8.7600056,-9.503492 0,-2.100671 0.7514985,-3.815177 1.980495,-5.161145 -0.1986904,-0.485509 -0.8572531,-2.441969 0.1874741,-5.0890386 0,0 1.6151605,-0.5159542 5.2893315,1.970881 1.533442,-0.4262231 3.177445,-0.6393346 4.811834,-0.6473463 1.634389,0.00801 3.279995,0.2211232 4.816641,0.6473463 3.670966,-2.4868352 5.282922,-1.970881 5.282922,-1.970881 1.04633,2.6486716 0.387767,4.6051316 0.189077,5.0890386 1.233803,1.345968 1.978892,3.062076 1.978892,5.161145 0,7.385195 -4.497774,9.011573 -8.779233,9.487468 0.689007,0.596072 1.318728,1.765781 1.318728,3.560405 v 5.276513 c 0,0.511147 0.30765,1.112025 1.283476,0.922949 C 32.953771,34.926254 38.456214,27.720521 38.456214,19.228107 38.456214,8.6093849 29.846829,0 19.228107,0 Z"
     id="path2"
     style="stroke-width:1.60234" />
</svg>
