<?xml version="1.0" encoding="UTF-8" standalone="no"?>
<svg
   viewBox="0 0 288.96706 37.508001"
   version="1.1"
   id="svg46"
   sodipodi:docname="jira.svg"
   width="288.96701"
   height="37.507999"
   inkscape:version="1.1 (ce6663b3b7, 2021-05-25)"
   xmlns:inkscape="http://www.inkscape.org/namespaces/inkscape"
   xmlns:sodipodi="http://sodipodi.sourceforge.net/DTD/sodipodi-0.dtd"
   xmlns:xlink="http://www.w3.org/1999/xlink"
   xmlns="http://www.w3.org/2000/svg"
   xmlns:svg="http://www.w3.org/2000/svg"
   xmlns:rdf="http://www.w3.org/1999/02/22-rdf-syntax-ns#"
   xmlns:cc="http://creativecommons.org/ns#"
   xmlns:dc="http://purl.org/dc/elements/1.1/">
  <sodipodi:namedview
     id="namedview48"
     pagecolor="#ffffff"
     bordercolor="#666666"
     borderopacity="1.0"
     inkscape:pageshadow="2"
     inkscape:pageopacity="0.0"
     inkscape:pagecheckerboard="0"
     showgrid="false"
     units="px"
     width="288.96701mm"
     inkscape:zoom="2.4105675"
     inkscape:cx="368.17057"
     inkscape:cy="37.957867"
     inkscape:window-width="1920"
     inkscape:window-height="1016"
     inkscape:window-x="0"
     inkscape:window-y="0"
     inkscape:window-maximized="1"
     inkscape:current-layer="svg46" />
  <defs
     id="defs10">
    <style
       id="style2">.cls-1{fill:#253858;}.cls-2{fill:#2684ff;}.cls-3{fill:url(#linear-gradient);}.cls-4{fill:url(#linear-gradient-2);}</style>
    <linearGradient
       id="linear-gradient"
       x1="34.639999"
       y1="15.35"
       x2="19"
       y2="30.99"
       gradientUnits="userSpaceOnUse">
      <stop
         offset="0.18"
         stop-color="#0052cc"
         id="stop4" />
      <stop
         offset="1"
         stop-color="#2684ff"
         id="stop6" />
    </linearGradient>
    <linearGradient
       id="linear-gradient-2"
       x1="38.779999"
       y1="60.279999"
       x2="54.389999"
       y2="44.669998"
       xlink:href="#linear-gradient" />
    <linearGradient
       inkscape:collect="always"
       xlink:href="#linear-gradient"
       id="linearGradient50"
       gradientUnits="userSpaceOnUse"
       x1="34.639999"
       y1="15.35"
       x2="19"
       y2="30.99" />
  </defs>
  <title
     id="title12">Jira Software-blue</title>
  <g
     id="Layer_2"
     data-name="Layer 2"
     transform="matrix(0.49508862,0,0,0.49508862,0.00132385,0)">
    <g
       id="Blue">
      <path
         class="cls-1"
         d="m 109.28,9 h 7.92 v 40.2 c 0,10.65 -4.66,18 -15.58,18 a 28.14,28.14 0 0 1 -9.5,-1.5 V 58 a 22.19,22.19 0 0 0 8.18,1.5 c 6.69,0 9,-4 9,-9.77 z"
         id="path14" />
      <path
         class="cls-1"
         d="m 131.63,5.91 a 4.94,4.94 0 0 1 5.28,5.28 5.28,5.28 0 1 1 -10.56,0 4.94,4.94 0 0 1 5.28,-5.28 z m -3.87,16.9 h 7.57 v 44 h -7.57 z"
         id="path16" />
      <path
         class="cls-1"
         d="m 146.76,22.8 h 7.39 v 7.74 c 2.55,-5.19 7,-8.89 15.58,-8.36 v 7.39 c -9.68,-1 -15.58,1.94 -15.58,11.26 v 26 h -7.39 z"
         id="path18" />
      <path
         class="cls-1"
         d="m 205.19,58.88 c -2.82,5.81 -8.1,8.8 -14.87,8.8 -11.7,0 -17.6,-9.94 -17.6,-22.88 0,-12.41 6.16,-22.88 18.48,-22.88 6.42,0 11.35,2.9 14,8.62 V 22.8 h 7.57 v 44 h -7.57 z m -12.85,1.76 c 6.78,0 12.85,-4.31 12.85,-14.08 V 43 c 0,-9.77 -5.54,-14.08 -12,-14.08 -8.54,0 -12.94,5.63 -12.94,15.84 0.04,10.6 4.26,15.88 12.1,15.88 z"
         id="path20" />
      <path
         class="cls-1"
         d="m 257.55,67.68 c -11.18,0 -16.37,-2.2 -20.86,-4.49 V 55.1 c 5.37,2.82 13.64,4.84 21.29,4.84 8.71,0 12,-3.43 12,-8.54 0,-5.11 -3.17,-7.83 -14.17,-10.47 -13,-3.17 -18.83,-7.66 -18.83,-17.16 0,-9 6.86,-15.66 20.33,-15.66 8.36,0 13.73,2 17.69,4.22 v 7.92 a 35.52,35.52 0 0 0 -18,-4.4 c -7.57,0 -12.06,2.64 -12.06,7.92 0,4.75 3.7,7.13 13.9,9.68 12.23,3.08 19.1,7 19.1,17.42 -0.06,10.03 -6.04,16.81 -20.39,16.81 z"
         id="path22" />
      <path
         class="cls-1"
         d="m 284.57,44.71 c 0,-13.2 7.74,-22.79 20.94,-22.79 13.2,0 20.77,9.59 20.77,22.79 0,13.2 -7.66,23 -20.77,23 -13.11,0 -20.94,-9.8 -20.94,-23 z m 7.39,0 c 0,8.36 4.14,15.93 13.55,15.93 9.41,0 13.38,-7.57 13.38,-15.93 C 318.89,36.35 314.84,29 305.51,29 296.18,29 292,36.35 292,44.71 Z"
         id="path24" />
      <path
         class="cls-1"
         d="m 345.55,22.8 h 11.35 v 7 h -11.35 v 37 h -7.39 v -37 H 331 v -7 h 7.13 V 18 c 0,-8.18 4.58,-13.73 14,-13.73 a 18.19,18.19 0 0 1 5.1,0.7 v 7 a 25,25 0 0 0 -4.75,-0.44 c -4.66,0 -7,2.73 -7,6.69 z"
         id="path26" />
      <path
         class="cls-1"
         d="m 382.51,59.41 a 24,24 0 0 0 4.75,-0.62 v 7.3 a 18.15,18.15 0 0 1 -5.1,0.7 c -9.42,0 -14,-5.54 -14,-13.73 V 29.84 H 361 v -7 h 7.13 v -9.37 h 7.39 v 9.33 h 11.7 v 7 h -11.7 v 23.1 c 0.04,3.87 2.33,6.51 6.99,6.51 z"
         id="path28" />
      <path
         class="cls-1"
         d="m 389.38,22.8 h 8.36 l 12.67,37.31 12.84,-37.31 h 7.22 L 443.32,60.11 456,22.8 h 8.36 l -16.19,44 h -9.68 l -7.57,-21.29 -4,-13.55 -4,13.55 -7.67,21.29 h -9.68 z"
         id="path30" />
      <path
         class="cls-1"
         d="m 498.93,58.88 c -2.82,5.81 -8.1,8.8 -14.87,8.8 -11.7,0 -17.6,-9.94 -17.6,-22.88 0,-12.41 6.16,-22.88 18.48,-22.88 6.42,0 11.35,2.9 14,8.62 V 22.8 h 7.57 v 44 h -7.57 z m -12.85,1.76 c 6.78,0 12.85,-4.31 12.85,-14.08 V 43 c 0,-9.77 -5.54,-14.08 -12,-14.08 C 478.43,29 474,34.59 474,44.8 c 0,10.56 4.25,15.84 12.09,15.84 z"
         id="path32" />
      <path
         class="cls-1"
         d="m 517.94,22.8 h 7.39 v 7.74 c 2.55,-5.19 7,-8.89 15.58,-8.36 v 7.39 c -9.68,-1 -15.58,1.94 -15.58,11.26 v 26 h -7.39 z"
         id="path34" />
      <path
         class="cls-1"
         d="m 567.57,67.68 c -16.46,0 -23.67,-9.5 -23.67,-23 0,-13.29 7.39,-22.79 20.77,-22.79 13.55,0 19,9.42 19,22.79 v 3.43 h -32.11 c 1.06,7.48 5.9,12.32 16.28,12.32 a 39,39 0 0 0 13.38,-2.38 v 7 c -3.61,1.95 -9.16,2.63 -13.65,2.63 z m -16.1,-26 H 576 C 575.56,33.5 571.86,28.83 564.3,28.83 556.31,28.79 552.26,34 551.47,41.63 Z"
         id="path36" />
      <path
         class="cls-2"
         d="M 72.4,35.76 39.8,3.16 36.64,0 V 0 L 12.1,24.54 v 0 L 0.88,35.76 a 3,3 0 0 0 0,4.24 L 23.3,62.42 36.64,75.76 61.18,51.22 61.56,50.84 72.4,40 a 3,3 0 0 0 0,-4.24 z m -35.76,13.32 -11.2,-11.2 11.2,-11.2 11.2,11.2 z"
         id="path38" />
      <path
         class="cls-3"
         d="M 36.64,26.68 A 18.86,18.86 0 0 1 36.56,0.09 l -24.51,24.5 13.34,13.34 z"
         id="path40"
         style="fill:url(#linearGradient50)" />
      <path
         class="cls-4"
         d="M 47.87,37.85 36.64,49.08 a 18.86,18.86 0 0 1 0,26.68 v 0 L 61.21,51.19 Z"
         id="path42"
         style="fill:url(#linear-gradient-2)" />
    </g>
  </g>
  <metadata
     id="metadata442">
    <rdf:RDF>
      <cc:Work
         rdf:about="">
        <dc:title>Jira Software-blue</dc:title>
      </cc:Work>
    </rdf:RDF>
  </metadata>
</svg>
