<?xml version="1.0" encoding="utf-8"?>
<!-- Generator: Adobe Illustrator 24.0.1, SVG Export Plug-In . SVG Version: 6.00 Build 0)  -->
<svg version="1.1" id="Layer_1" xmlns="http://www.w3.org/2000/svg" xmlns:xlink="http://www.w3.org/1999/xlink" x="0px" y="0px"
	 viewBox="0 0 1560 720" style="enable-background:new 0 0 1560 720;" xml:space="preserve">
<style type="text/css">
	.st0{fill:#FFFFFF;}
</style>
<path class="st0" d="M1101,419c0,45.7,0,91.3,0,137c-213.2,0-426.4,0-639.6,0c0-45,0-89.9,0-134.9c1.5,0.3,1.8,0.5,1.9,0.8
	c0.2,0.6,0.3,1.3,0.4,1.9c2,14,7.9,26.4,16.4,37.5c13.6,17.9,31.1,30,53.3,35c16.7,3.8,33.2,3.6,49.3-1.5
	c21.7-6.9,39.4-20,51.1-39.8c5.2-8.8,8.5-18.7,12-28.3c2.1-5.8,0.3-7.4-5.8-7.5c-6.7,0-13.4,0.6-20-0.2c-6.2-0.7-8.8,2.2-10.3,7.3
	c-0.2,0.6-0.4,1.3-0.6,1.9c-8.7,19.2-23.3,31.6-44,35.3c-16.6,2.9-32.2-0.9-46.1-11.2c-24-17.8-30.3-54.7-13-79
	c13.4-18.9,31.6-28.5,54.8-25.6c9.7,1.2,15.4-0.7,19.4-9.5c2.9-6.2,7-11.8,10.9-18.3c-21.6-9.2-43.2-10.2-64.2-3.2
	c-35.5,11.8-57,37-64.2,74.2c-0.4-0.1-0.9-0.2-1.3-0.3c0-87.6,0-175.1,0-262.7c213.2,0,426.4,0,639.6,0c0,88,0,176,0,264
	c-0.8-1.5-2-3-2.3-4.6c-2.1-13.8-7.7-26.2-16.1-37c-20.9-27.2-48.6-39.9-82.9-37.3c-3.6,0.3-7.4,0.4-10.9,1.4
	c-1.3,0.4-3.3,3.3-2.9,4.2c3.7,8.7,7.7,17.2,12.1,25.6c0.8,1.5,3.4,2.7,5.3,3c7.6,1.2,15.6,1,23,3.2c19.3,5.8,31.2,19.5,37.5,38.2
	c5.5,16.1,3,31.5-5.3,46.1c-16.2,28.6-51.1,37.8-78.6,22.8c-34.8-19.1-41.5-63.2-14.7-92.2c2.5-2.7,2.8-5,1.3-8
	c-3.4-6.8-6.7-13.7-9.9-20.6c-3.1-6.9-3.8-7.1-9.5-2c-17.9,16-28.8,35.5-31.9,59.6c-2.7,20.5,1.2,39.5,11.2,57.1
	c13.2,23.4,33,38.4,59.4,44.7c19.7,4.7,39.3,3.8,57.6-4.3c29.9-13.3,49.3-35.8,55.4-68.7C1099.1,421.7,1100.3,420.4,1101,419z
	 M625,310.7c1.6,2.1,3.1,3.6,4.1,5.4c7.4,12.6,14.7,25.2,21.9,37.9c6.7,11.6,13.4,23.3,20.1,34.9c2,3.5,1.1,5.2-3.1,5.4
	c-1.5,0.1-3,0-4.5,0c-41.1,0-82.3,0-123.4,0c-11.5,0-11.2-1.6-11.2,11.5c0,7.5,0,7.5,7.5,7.5c47,0,93.9,0.1,140.9-0.1
	c5.6,0,8.5,1.9,11.5,6.5c8.9,13.4,21.4,21.4,37.7,21.6c26,0.4,52,0.1,77.9,0.1c11.8,0,23.6,0.1,35.5-0.1c1.7,0,4.2-0.9,4.9-2.1
	c3.1-5.5,5.7-11.2,8.5-16.9c11.1-23,22.2-46,33.3-68.9c5.8-11.9,11.5-23.8,17.5-36.4c-2.7-0.2-4.8-0.6-6.9-0.6
	c-18.2,0-36.3,0-54.5,0c-1.5,0-3.1,0.2-4.5-0.3c-0.9-0.3-2.1-1.6-2-2.3c0.1-1,1.1-2.4,2-2.8c1.3-0.5,2.9-0.3,4.4-0.3
	c19.8,0,39.6,0,59.5,0c5.6,0,7.3-1.9,7.6-8.2c-1.4-0.1-2.9-0.2-4.3-0.2c-30.6,0-61.3,0-91.9,0c-1.8,0-3.7,0.1-5.5-0.3
	c-1-0.3-2.2-1.7-2.2-2.6c0-0.9,1.2-2.3,2.2-2.6c1.5-0.5,3.3-0.3,4.9-0.3c26,0,52-0.1,77.9,0c15.5,0.1,30.9,0.5,45.8-5.1
	c5.8-2.2,7.6-0.6,10.2,5.2c5.9,13.1,11.9,26.3,18,39.3c12,25.7,24.2,51.3,36.1,77c1.5,3.3,3.4,3.8,6.2,2.7c2.8-1.1,5.7-2.1,8.1-3.8
	c1.3-1,2.8-3.8,2.3-5c-3.5-8.4-7.4-16.6-11.3-24.9c-7.3-15.6-14.7-31.1-22-46.7c-8.9-19.1-17.7-38.2-26.6-57.3
	c-9-19.4-18.2-38.7-27.3-58.1c-8.1-17.3-15.8-34.7-24-51.9c-4.3-9.1-8.3-10.1-18-7.2c-12.5,3.8-25.2,7.2-37.9,10.3
	c-4.4,1.1-5.8,2.6-4,6.8c0.4,0.9,0.7,1.9,0.9,2.9c2,8.5,3.5,9,12,6.4c9.2-2.8,18.6-5,27.9-7.4c3.1-0.8,5.2-0.3,6.6,3.2
	c2.6,6.5,5.7,12.7,8.7,19c3.1,6.4,2.8,6.7-4,7.4c-20.1,2.2-40.3,4.2-60.4,7c-19.6,2.8-38.5,8.7-56.3,17.7
	c-13.5,6.8-25.7,15.5-33.2,29.1c-2,3.7-4.3,4.8-8.2,4.8c-24.8-0.1-49.6,0-74.4-0.1c-2.1,0-4.5-0.1-6.3-1
	c-9.8-4.8-19.4-10.2-29.3-14.8c-8.1-3.7-16.3-8.4-24.9-9.5c-23.2-2.9-46.7-4.5-70.1-6c-12.7-0.8-24.1,12.4-21.9,25.1
	c0.6,3.4-0.2,5.7-2.7,7.9c-8.9,8-17.8,16-26.6,24.1c-6.6,6-13.2,12-20.8,18.8c2.6,2.7,4.7,4.7,6.9,6.9c15.5-14,29.9-27.3,44.6-40.2
	c2.1-1.8,5.7-3.1,8.4-2.8c14.9,1.5,29.7,3.6,44.5,5.5c13.8,1.9,27.7,3.8,41.5,5.8c5.4,0.8,6.7,3.4,3.9,7.9
	c-9.6,15.3-19.2,30.6-28.9,45.9c-8.6,13.6-17.1,27.3-25.7,40.9c-2.5,3.9-1.7,5.5,2.7,5.6c3.8,0.1,7.7,0.3,11.5-0.1
	c1.7-0.2,4.1-1.1,4.9-2.4c6.9-10.6,13.4-21.4,20.1-32C606.9,339.4,615.7,325.4,625,310.7z M993.9,232.7c-1.5-8.5-2.4-15.4-4.1-22.2
	c-1.8-7.2-7-11.1-12.8-9.9c-4.1,0.9-8.4,2.2-12.1,4.2c-11.5,6-17.3,20.1-14.3,33.3c2.8,12.4,14.8,22.6,27.4,23.2
	c4.4,0.2,8.2-1.3,9.6-5.6C990.1,247.8,992,239.7,993.9,232.7z M616.1,335.7c-6,9.5-11.6,18.2-16.9,27.2c-0.7,1.2,0,3.7,0.8,5.1
	c3,5.5,6.1,11,9.6,16.1c1.2,1.8,3.7,3.6,5.7,3.7c9,0.4,17.9,0.1,26.9,0.2c3.6,0,4.4-1.7,3.3-4.8c-2.6-7-4.8-14.2-8.1-20.8
	C632.3,352.4,625.5,343.4,616.1,335.7z"/>
<path d="M1101,419c-0.7,1.4-1.9,2.7-2.2,4.1c-6.1,32.9-25.5,55.4-55.4,68.7c-18.4,8.1-37.9,9-57.6,4.3
	c-26.3-6.3-46.2-21.3-59.4-44.7c-9.9-17.6-13.8-36.6-11.2-57.1c3.1-24.1,14-43.6,31.9-59.6c5.7-5.1,6.4-4.9,9.5,2
	c3.1,6.9,6.5,13.8,9.9,20.6c1.5,3,1.2,5.3-1.3,8c-26.9,29-20.2,73.2,14.7,92.2c27.4,15,62.4,5.8,78.6-22.8
	c8.3-14.6,10.8-30,5.3-46.1c-6.3-18.7-18.3-32.4-37.5-38.2c-7.3-2.2-15.3-2-23-3.2c-1.9-0.3-4.5-1.5-5.3-3
	c-4.4-8.4-8.4-16.9-12.1-25.6c-0.4-0.9,1.6-3.9,2.9-4.2c3.5-0.9,7.2-1.1,10.9-1.4c34.4-2.5,62,10.2,82.9,37.3
	c8.4,10.9,14,23.3,16.1,37c0.2,1.6,1.5,3,2.3,4.6C1101,401,1101,410,1101,419z"/>
<path d="M463.4,391c2.1-14.2,8.3-27.7,16.2-39.6c7.4-11.1,17.3-20.3,29-26.8c5.8-3.2,11.9-5.8,18.2-7.9c21-7,42.5-6,64.2,3.2
	c-3.9,6.4-8.1,12.1-10.9,18.3c-4.1,8.8-9.7,10.8-19.4,9.5c-23.1-3-41.3,6.6-54.8,25.6c-17.3,24.4-11,61.2,13,79
	c14,10.3,29.5,14.1,46.1,11.2c20.7-3.7,35.3-16,44-35.3c0.3-0.6,0.4-1.3,0.6-1.9c1.5-5.2,4.2-8,10.3-7.3c6.6,0.7,13.3,0.2,20,0.2
	c6.1,0,7.8,1.7,5.8,7.5c-3.5,9.6-6.8,19.6-12,28.3c-11.7,19.8-29.4,32.9-51.1,39.8c-16,5.1-32.6,5.3-49.3,1.5
	c-22.3-5-39.7-17.1-53.3-35c-5.6-7.3-10.1-15.3-13.1-24c-3.1-9.1-4.4-18.8-4.5-28.4C462.4,403,462.6,396.9,463.4,391z"/>
<path d="M625,310.7c-9.2,14.7-18.1,28.7-26.9,42.7c-6.7,10.7-13.2,21.5-20.1,32c-0.9,1.3-3.2,2.3-4.9,2.4c-3.8,0.4-7.7,0.2-11.5,0.1
	c-4.5-0.2-5.2-1.7-2.7-5.6c8.5-13.6,17.1-27.3,25.7-40.9c9.6-15.3,19.3-30.6,28.9-45.9c2.8-4.4,1.5-7.1-3.9-7.9
	c-13.8-2-27.6-4-41.5-5.8c-14.8-2-29.6-4-44.5-5.5c-2.7-0.3-6.3,1-8.4,2.8c-14.7,12.9-29.1,26.2-44.6,40.2c-2.2-2.2-4.2-4.3-6.9-6.9
	c7.6-6.9,14.2-12.9,20.8-18.8c8.9-8,17.7-16.1,26.6-24.1c2.5-2.2,3.3-4.4,2.7-7.9c-2.2-12.6,9.1-25.9,21.9-25.1
	c23.4,1.5,46.8,3.1,70.1,6c8.6,1.1,16.8,5.7,24.9,9.5c9.9,4.6,19.5,10,29.3,14.8c1.8,0.9,4.2,1,6.3,1c24.8,0.1,49.6,0,74.4,0.1
	c3.9,0,6.2-1.1,8.2-4.8c7.5-13.6,19.7-22.2,33.2-29.1c17.7-9,36.6-14.9,56.3-17.7c20.1-2.9,40.2-4.8,60.4-7c6.8-0.7,7.1-1.1,4-7.4
	c-3-6.3-6.1-12.5-8.7-19c-1.4-3.5-3.5-4-6.6-3.2c-9.3,2.5-18.7,4.6-27.9,7.4c-8.5,2.6-10,2.1-12-6.4c-0.2-1-0.5-2-0.9-2.9
	c-1.9-4.2-0.4-5.7,4-6.8c12.7-3.1,25.4-6.5,37.9-10.3c9.7-2.9,13.7-1.9,18,7.2c8.2,17.2,16,34.6,24,51.9c9,19.4,18.2,38.7,27.3,58.1
	c8.9,19.1,17.7,38.2,26.6,57.3c7.3,15.6,14.7,31.2,22,46.7c3.9,8.3,7.8,16.5,11.3,24.9c0.5,1.2-0.9,4-2.3,5
	c-2.4,1.7-5.3,2.7-8.1,3.8c-2.8,1.1-4.7,0.6-6.2-2.7c-11.9-25.7-24.1-51.3-36.1-77c-6.1-13.1-12-26.2-18-39.3
	c-2.6-5.8-4.5-7.3-10.2-5.2c-14.9,5.6-30.3,5.2-45.8,5.1c-26-0.1-52,0-77.9,0c-1.7,0-3.4-0.2-4.9,0.3c-1,0.3-2.2,1.7-2.2,2.6
	c0,0.9,1.3,2.3,2.2,2.6c1.7,0.5,3.6,0.3,5.5,0.3c30.6,0,61.3,0,91.9,0c1.4,0,2.9,0.1,4.3,0.2c-0.3,6.3-2,8.2-7.6,8.2
	c-19.8,0-39.6,0-59.5,0c-1.5,0-3.1-0.2-4.4,0.3c-0.9,0.4-1.9,1.8-2,2.8c-0.1,0.7,1.1,2,2,2.3c1.4,0.4,3,0.3,4.5,0.3
	c18.2,0,36.3,0,54.5,0c2.1,0,4.2,0.4,6.9,0.6c-6.1,12.6-11.8,24.5-17.5,36.4c-11.1,23-22.2,46-33.3,68.9c-2.7,5.7-5.4,11.4-8.5,16.9
	c-0.7,1.3-3.2,2.1-4.9,2.1c-11.8,0.2-23.6,0.1-35.5,0.1c-26,0-52,0.2-77.9-0.1c-16.3-0.2-28.9-8.2-37.7-21.6
	c-3-4.5-5.9-6.5-11.5-6.5c-47,0.2-93.9,0.1-140.9,0.1c-7.4,0-7.4,0-7.5-7.5c-0.1-13-0.4-11.4,11.2-11.5c41.1,0,82.3,0,123.4,0
	c1.5,0,3,0.1,4.5,0c4.2-0.3,5.1-1.9,3.1-5.4c-6.7-11.7-13.4-23.3-20.1-34.9c-7.3-12.6-14.6-25.3-21.9-37.9
	C628.1,314.3,626.6,312.8,625,310.7z"/>
<path d="M993.9,232.7c-1.9,6.9-3.9,15.1-6.4,23c-1.4,4.3-5.2,5.8-9.6,5.6c-12.6-0.6-24.6-10.7-27.4-23.2c-3-13.2,2.9-27.2,14.3-33.3
	c3.7-2,7.9-3.3,12.1-4.2c5.8-1.3,11,2.7,12.8,9.9C991.5,217.3,992.4,224.2,993.9,232.7z"/>
<path d="M616.1,335.7c9.4,7.7,16.2,16.6,21.3,26.7c3.3,6.6,5.5,13.8,8.1,20.8c1.2,3.1,0.3,4.8-3.3,4.8c-9-0.1-18,0.2-26.9-0.2
	c-2-0.1-4.5-1.9-5.7-3.7c-3.5-5.2-6.6-10.6-9.6-16.1c-0.8-1.5-1.5-4-0.8-5.1C604.5,354,610.1,345.2,616.1,335.7z"/>
</svg>
