<svg xmlns="http://www.w3.org/2000/svg" viewBox="0 0 593.77 300.84"><title>truck</title><path d="M118.07,328c-2.63-.62-5.29-1.15-7.9-1.87a46,46,0,1,1,19.49,1.2,17.5,17.5,0,0,0-2.32.67Zm4.28-21.08a25,25,0,1,0,.28-50,25,25,0,1,0-.28,50Z" transform="translate(-9.63 -27.16)"/><path d="M438.88,328c-5.29-1.68-10.87-2.74-15.81-5.14-19.69-9.58-29.46-32.21-23.48-53.36,6.1-21.59,26.12-35.13,49.09-33.2,21,1.77,38.6,19.21,40.95,40.53a45.91,45.91,0,0,1-38.45,50.49,17.54,17.54,0,0,0-2.32.68Zm30.06-45.89a25.07,25.07,0,0,0-50.14-.46,25.07,25.07,0,0,0,50.14.46Z" transform="translate(-9.63 -27.16)"/><path d="M223.55,27.33H603.33v4q0,97.07.06,194.15c0,3.2-.77,4.19-4.11,4.19q-185.7-.14-371.4,0c-3.34,0-4.41-.78-4.41-4.28q.17-97.06.08-194.15Z" transform="translate(-9.63 -27.16)"/><path d="M185.67,281.65A63,63,0,0,0,123,219.5c-17.17,0-32,6-44.32,18.05C67.53,248.49,63.88,257,59.51,281.71H9.63V278q0-48.7,0-97.41a38.06,38.06,0,0,1,1.06-7.69c5.86-27.67,16.45-53.88,25-80.72,4-12.41,8.15-24.75,12.42-37.05a7.64,7.64,0,0,1,3.45-4C67.52,43.39,83.5,35.81,99.47,28.23a10,10,0,0,1,4.06-1q50.43-.09,100.85,0c.58,0,1.15.08,2.09.15v217H393.81C385.43,255.88,381.3,268,381,281.65ZM40.8,152.24H176.89V77.71a25.13,25.13,0,0,0-2.58-.29q-52.92,0-105.85-.07c-2.5,0-3.16,1.16-3.82,3.14q-8.55,26-17.23,52C45.24,138.94,43.07,145.43,40.8,152.24Z" transform="translate(-9.63 -27.16)"/><path d="M506.65,281.88a63.28,63.28,0,0,0-12.41-37.19h87.94c0,8.2,0,16.23-.07,24.26,0,.72-.91,1.57-1.59,2.13-1.28,1-2.86,1.75-4,2.89-7.36,7.08-16.16,8.56-26.1,8.07-13.15-.66-26.36-.16-39.55-.16Z" transform="translate(-9.63 -27.16)"/></svg>